<svg width="1194" height="647" viewBox="0 0 1194 647" fill="none" xmlns="http://www.w3.org/2000/svg">
<g clip-path="url(#clip0_39_403)">
<mask id="mask0_39_403" style="mask-type:alpha" maskUnits="userSpaceOnUse" x="-1" y="0" width="1195" height="647">
<path d="M1194 0H-0.746826V647H1194V0Z" fill="url(#paint0_radial_39_403)"/>
</mask>
<g mask="url(#mask0_39_403)">
<path fill-rule="evenodd" clip-rule="evenodd" d="M48.661 339.271V291.554H-0.746826V290.746H48.661V243.029H-0.746826V242.221H48.661V194.504H-0.746826V193.696H48.661V145.979H-0.746826V145.171H48.661V97.4544H-0.746826V96.6456H48.661V48.9293H-0.746826V48.1205H48.661V0H49.4077V48.1205H98.4418V0H99.1885V48.1205H148.223V0H148.97V48.1205H198.005V0H198.751V48.1205L247.785 48.1206V0H248.532V48.1206H297.566V0H298.313V48.1206H347.348V0H348.095V48.1206H397.128V0H397.875V48.1206H446.91V0H447.657V48.1206H496.691V0H497.438V48.1206H546.472V0H547.219V48.1206H596.253V0H597V48.1206H646.035V0H646.781V48.1206H695.815V0H696.562V48.1206H745.596V0H746.343V48.1206H795.38V0H796.127V48.1206H845.156V0H845.903V48.1206H894.94V0H895.687V48.1206H944.723V0H945.47V48.1206H994.5V0H995.246V48.1206H1044.28V0H1045.03V48.1206H1094.07V0H1094.81V48.1206H1143.84V0H1144.59V48.1206H1194V48.9294H1144.59V96.6456H1194V97.4544H1144.59V145.171H1194V145.979H1144.59V193.696H1194V194.504H1144.59V242.221H1194V243.029H1144.59V290.746H1194V291.554H1144.59V339.271H1194V340.079H1144.59V387.796H1194V388.604H1144.59V436.321H1194V437.129H1144.59V484.846H1194V485.654H1144.59V533.371H1194V534.179H1144.59V581.896H1194V582.704H1144.59V630.421H1194V631.229H1144.59V678.946H1194V679.754H1144.59V727.471H1194V728.279H1144.59V775.996H1194V776.804H1144.59V824.521H1194V825.329H1144.59V873.046H1194V873.854H1144.59V921.571H1194V922.379H1144.59V970.096H1194V970.904H1144.59V1018.62H1194V1019.43H1144.59V1067.15H1194V1067.95H1144.59V1115.67H1194V1116.48H1144.59V1164.6H1143.84V1116.48H1094.81V1164.6H1094.07V1116.48H1045.03V1164.6H1044.28V1116.48H995.246V1164.6H994.5V1116.48H945.47V1164.6H944.723V1116.48H895.687V1164.6H894.94V1116.48H845.903V1164.6H845.156V1116.48H796.127V1164.6H795.38V1116.48H746.343V1164.6H745.596V1116.48H696.562V1164.6H695.815V1116.48H646.781V1164.6H646.035V1116.48H597V1164.6H596.253V1116.48H547.219V1164.6H546.472V1116.48H497.438V1164.6H496.691V1116.48H447.657V1164.6H446.91V1116.48H397.875V1164.6H397.128V1116.48H348.095V1164.6H347.348V1116.48H298.313V1164.6H297.566V1116.48H248.532V1164.6H247.785V1116.48H198.751V1164.6H198.005V1116.48H148.97V1164.6H148.223V1116.48H99.1885V1164.6H98.4418V1116.48H49.4077V1164.6H48.661V1116.48H-0.746826V1115.67H48.661V1067.95H-0.746826V1067.15H48.661V1019.43H-0.746826V1018.62H48.661V970.904H-0.746826V970.096H48.661V922.379H-0.746826V921.571H48.661V873.854H-0.746826V873.046H48.661V825.329H-0.746826V824.521H48.661V776.804H-0.746826V775.996H48.661V728.279H-0.746826V727.471H48.661V679.754H-0.746826V678.946H48.661V631.229H-0.746826V630.421H48.661V582.704H-0.746826V581.896H48.661V534.179H-0.746826V533.371H48.661V485.654H-0.746826V484.846H48.661V437.129H-0.746826V436.321H48.661V388.604H-0.746826V387.796H48.661V340.079H-0.746826V339.271H48.661ZM49.4077 1019.43V1067.15H98.4418V1019.43H49.4077ZM98.4418 1018.62H49.4077V970.904H98.4418V1018.62ZM99.1885 1019.43V1067.15H148.223V1019.43H99.1885ZM148.223 1018.62H99.1885V970.904H148.223V1018.62ZM148.97 1019.43V1067.15H198.005V1019.43H148.97ZM198.005 1018.62H148.97V970.904H198.005V1018.62ZM198.751 1019.43V1067.15H247.785V1019.43H198.751ZM247.785 1018.62H198.751V970.904H247.785V1018.62ZM248.532 1019.43V1067.15H297.566V1019.43H248.532ZM297.566 1018.62H248.532V970.904H297.566V1018.62ZM298.313 1019.43V1067.15H347.348V1019.43H298.313ZM347.348 1018.62H298.313V970.904H347.348V1018.62ZM348.095 1019.43V1067.15H397.128V1019.43H348.095ZM397.128 1018.62H348.095V970.904H397.128V1018.62ZM397.875 1019.43V1067.15H446.91V1019.43H397.875ZM446.91 1018.62H397.875V970.904H446.91V1018.62ZM447.657 1019.43V1067.15H496.691V1019.43H447.657ZM496.691 1018.62H447.657V970.904H496.691V1018.62ZM497.438 1019.43V1067.15H546.472V1019.43H497.438ZM546.472 1018.62H497.438V970.904H546.472V1018.62ZM547.219 1019.43V1067.15H596.253V1019.43H547.219ZM596.253 1018.62H547.219V970.904H596.253V1018.62ZM597 1019.43V1067.15H646.035V1019.43H597ZM646.035 1018.62H597V970.904H646.035V1018.62ZM646.781 1019.43V1067.15H695.815V1019.43H646.781ZM695.815 1018.62H646.781V970.904H695.815V1018.62ZM696.562 1019.43V1067.15H745.596V1019.43H696.562ZM745.596 1018.62H696.562V970.904H745.596V1018.62ZM746.343 1019.43V1067.15H795.38V1019.43H746.343ZM795.38 1018.62H746.343V970.904H795.38V1018.62ZM796.127 1019.43V1067.15H845.156V1019.43H796.127ZM845.156 1018.62H796.127V970.904H845.156V1018.62ZM845.903 1019.43V1067.15H894.94V1019.43H845.903ZM894.94 1018.62H845.903V970.904H894.94V1018.62ZM895.687 1019.43V1067.15H944.723V1019.43H895.687ZM944.723 1018.62H895.687V970.904H944.723V1018.62ZM945.47 1019.43V1067.15H994.5V1019.43H945.47ZM994.5 1018.62H945.47V970.904H994.5V1018.62ZM995.246 1019.43V1067.15H1044.28V1019.43H995.246ZM1044.28 1018.62H995.246V970.904H1044.28V1018.62ZM1045.03 1019.43V1067.15H1094.07V1019.43H1045.03ZM1094.07 1018.62H1045.03V970.904H1094.07V1018.62ZM1094.81 1019.43V1067.15H1143.84V1019.43H1094.81ZM1143.84 1018.62H1094.81V970.904H1143.84V1018.62ZM1143.84 679.754V727.471H1094.81V679.754H1143.84ZM1094.07 679.754V727.471H1045.03V679.754H1094.07ZM1094.07 728.279H1045.03V775.996H1094.07V728.279ZM1044.28 679.754V727.471H995.246V679.754H1044.28ZM1044.28 728.279H995.246V775.996H1044.28V728.279ZM994.5 679.754V727.471H945.47V679.754H994.5ZM994.5 728.279H945.47V775.996H994.5V728.279ZM944.723 679.754V727.471H895.687V679.754H944.723ZM944.723 728.279H895.687V775.996H944.723V728.279ZM894.94 679.754V727.471H845.903V679.754H894.94ZM894.94 728.279H845.903V775.996H894.94V728.279ZM845.156 679.754V727.471H796.127V679.754H845.156ZM845.156 728.279H796.127V775.996H845.156V728.279ZM795.38 679.754V727.471H746.343V679.754H795.38ZM795.38 728.279H746.343V775.996H795.38V728.279ZM745.596 679.754V727.471H696.562V679.754H745.596ZM745.596 728.279H696.562V775.996H745.596V728.279ZM695.815 679.754V727.471H646.781V679.754H695.815ZM695.815 728.279H646.781V775.996H695.815V728.279ZM646.035 679.754V727.471H597V679.754H646.035ZM646.035 728.279H597V775.996H646.035V728.279ZM596.253 679.754V727.471H547.219V679.754H596.253ZM596.253 728.279H547.219V775.996H596.253V728.279ZM546.472 679.754V727.471H497.438V679.754H546.472ZM546.472 728.279H497.438V775.996H546.472V728.279ZM496.691 679.754V727.471H447.657V679.754H496.691ZM496.691 728.279H447.657V775.996H496.691V728.279ZM446.91 679.754V727.471H397.875V679.754H446.91ZM446.91 728.279H397.875V775.996H446.91V728.279ZM397.128 679.754V727.471H348.095V679.754H397.128ZM397.128 728.279H348.095V775.996H397.128V728.279ZM347.348 679.754V727.471H298.313V679.754H347.348ZM347.348 728.279H298.313V775.996H347.348V728.279ZM297.566 679.754V727.471H248.532V679.754H297.566ZM297.566 728.279H248.532V775.996H297.566V728.279ZM247.785 679.754V727.471H198.751V679.754H247.785ZM247.785 728.279H198.751V775.996H247.785V728.279ZM198.005 679.754V727.471H148.97V679.754H198.005ZM198.005 728.279H148.97V775.996H198.005V728.279ZM148.223 679.754V727.471H99.1885V679.754H148.223ZM148.223 728.279H99.1885V775.996H148.223V728.279ZM98.4418 679.754V727.471H49.4077V679.754H98.4418ZM98.4418 728.279H49.4077V775.996H98.4418V728.279ZM1143.84 728.279H1094.81V775.996H1143.84V728.279ZM49.4077 340.079V387.796H98.4418V340.079H49.4077ZM98.4418 339.271H49.4077V291.554H98.4418V339.271ZM99.1885 340.079V387.796H148.223V340.079H99.1885ZM148.223 339.271H99.1885V291.554H148.223V339.271ZM148.97 340.079V387.796H198.005V340.079H148.97ZM198.005 339.271H148.97V291.554H198.005V339.271ZM198.751 340.079V387.796H247.785V340.079H198.751ZM247.785 339.271H198.751V291.554H247.785V339.271ZM248.532 340.079V387.796H297.566V340.079H248.532ZM297.566 339.271H248.532V291.554H297.566V339.271ZM298.313 340.079V387.796H347.348V340.079H298.313ZM347.348 339.271H298.313V291.554H347.348V339.271ZM348.095 340.079V387.796H397.128V340.079H348.095ZM397.128 339.271H348.095V291.554H397.128V339.271ZM397.875 340.079V387.796H446.91V340.079H397.875ZM446.91 339.271H397.875V291.554H446.91V339.271ZM447.657 340.079V387.796H496.691V340.079H447.657ZM496.691 339.271H447.657V291.554H496.691V339.271ZM497.438 340.079V387.796H546.472V340.079H497.438ZM546.472 339.271H497.438V291.554H546.472V339.271ZM547.219 340.079V387.796H596.253V340.079H547.219ZM596.253 339.271H547.219V291.554H596.253V339.271ZM597 340.079V387.796H646.035V340.079H597ZM646.035 339.271H597V291.554H646.035V339.271ZM646.781 340.079V387.796H695.815V340.079H646.781ZM695.815 339.271H646.781V291.554H695.815V339.271ZM696.562 340.079V387.796H745.596V340.079H696.562ZM745.596 339.271H696.562V291.554H745.596V339.271ZM746.343 340.079V387.796H795.38V340.079H746.343ZM795.38 339.271H746.343V291.554H795.38V339.271ZM796.127 340.079V387.796H845.156V340.079H796.127ZM845.156 339.271H796.127V291.554H845.156V339.271ZM845.903 340.079V387.796H894.94V340.079H845.903ZM894.94 339.271H845.903V291.554H894.94V339.271ZM895.687 340.079V387.796H944.723V340.079H895.687ZM944.723 339.271H895.687V291.554H944.723V339.271ZM945.47 340.079V387.796H994.5V340.079H945.47ZM994.5 339.271H945.47V291.554H994.5V339.271ZM995.246 340.079V387.796H1044.28V340.079H995.246ZM1044.28 339.271H995.246V291.554H1044.28V339.271ZM1045.03 340.079V387.796H1094.07V340.079H1045.03ZM1094.07 339.271H1045.03V291.554H1094.07V339.271ZM1094.81 340.079V387.796H1143.84V340.079H1094.81ZM1143.84 339.271H1094.81V291.554H1143.84V339.271ZM1143.84 1067.95V1115.67H1094.81V1067.95H1143.84ZM1094.07 1067.95V1115.67H1045.03V1067.95H1094.07ZM1044.28 1067.95V1115.67H995.246V1067.95H1044.28ZM994.5 1067.95V1115.67H945.47V1067.95H994.5ZM944.723 1067.95V1115.67H895.687V1067.95H944.723ZM894.94 1067.95V1115.67H845.903V1067.95H894.94ZM845.156 1067.95V1115.67H796.127V1067.95H845.156ZM795.38 1067.95V1115.67H746.343V1067.95H795.38ZM745.596 1067.95V1115.67H696.562V1067.95H745.596ZM695.815 1067.95V1115.67H646.781V1067.95H695.815ZM646.035 1067.95V1115.67H597V1067.95H646.035ZM596.253 1067.95V1115.67H547.219V1067.95H596.253ZM546.472 1067.95V1115.67H497.438V1067.95H546.472ZM496.691 1067.95V1115.67H447.657V1067.95H496.691ZM446.91 1067.95V1115.67H397.875V1067.95H446.91ZM397.128 1067.95V1115.67H348.095V1067.95H397.128ZM347.348 1067.95V1115.67H298.313V1067.95H347.348ZM297.566 1067.95V1115.67H248.532V1067.95H297.566ZM247.785 1067.95V1115.67H198.751V1067.95H247.785ZM198.005 1067.95V1115.67H148.97V1067.95H198.005ZM148.223 1067.95V1115.67H99.1885V1067.95H148.223ZM98.4418 1067.95V1115.67H49.4077V1067.95H98.4418ZM1143.84 776.804V824.521H1094.81V776.804H1143.84ZM1094.07 776.804V824.521H1045.03V776.804H1094.07ZM1094.07 825.329H1045.03V873.046H1094.07V825.329ZM1044.28 776.804V824.521H995.246V776.804H1044.28ZM1044.28 825.329H995.246V873.046H1044.28V825.329ZM994.5 776.804V824.521H945.47V776.804H994.5ZM994.5 825.329H945.47V873.046H994.5V825.329ZM944.723 776.804V824.521H895.687V776.804H944.723ZM944.723 825.329H895.687V873.046H944.723V825.329ZM894.94 776.804V824.521H845.903V776.804H894.94ZM894.94 825.329H845.903V873.046H894.94V825.329ZM845.156 776.804V824.521H796.127V776.804H845.156ZM845.156 825.329H796.127V873.046H845.156V825.329ZM795.38 776.804V824.521H746.343V776.804H795.38ZM795.38 825.329H746.343V873.046H795.38V825.329ZM745.596 776.804V824.521H696.562V776.804H745.596ZM745.596 825.329H696.562V873.046H745.596V825.329ZM695.815 776.804V824.521H646.781V776.804H695.815ZM695.815 825.329H646.781V873.046H695.815V825.329ZM646.035 776.804V824.521H597V776.804H646.035ZM646.035 825.329H597V873.046H646.035V825.329ZM596.253 776.804V824.521H547.219V776.804H596.253ZM596.253 825.329H547.219V873.046H596.253V825.329ZM546.472 776.804V824.521H497.438V776.804H546.472ZM546.472 825.329H497.438V873.046H546.472V825.329ZM496.691 776.804V824.521H447.657V776.804H496.691ZM496.691 825.329H447.657V873.046H496.691V825.329ZM446.91 776.804V824.521H397.875V776.804H446.91ZM446.91 825.329H397.875V873.046H446.91V825.329ZM397.128 776.804V824.521H348.095V776.804H397.128ZM397.128 825.329H348.095V873.046H397.128V825.329ZM347.348 776.804V824.521H298.313V776.804H347.348ZM347.348 825.329H298.313V873.046H347.348V825.329ZM297.566 776.804V824.521H248.532V776.804H297.566ZM297.566 825.329H248.532V873.046H297.566V825.329ZM247.785 776.804V824.521H198.751V776.804H247.785ZM247.785 825.329H198.751V873.046H247.785V825.329ZM198.005 776.804V824.521H148.97V776.804H198.005ZM198.005 825.329H148.97V873.046H198.005V825.329ZM148.223 776.804V824.521H99.1885V776.804H148.223ZM148.223 825.329H99.1885V873.046H148.223V825.329ZM98.4418 776.804V824.521H49.4077V776.804H98.4418ZM98.4418 825.329H49.4077V873.046H98.4418V825.329ZM1143.84 825.329H1094.81V873.046H1143.84V825.329ZM49.4077 534.179V581.896H98.4418V534.179H49.4077ZM98.4418 533.371H49.4077V485.654H98.4418V533.371ZM99.1885 534.179V581.896H148.223V534.179H99.1885ZM148.223 533.371H99.1885V485.654H148.223V533.371ZM148.97 534.179V581.896H198.005V534.179H148.97ZM198.005 533.371H148.97V485.654H198.005V533.371ZM198.751 534.179V581.896H247.785V534.179H198.751ZM247.785 533.371H198.751V485.654H247.785V533.371ZM248.532 534.179V581.896H297.566V534.179H248.532ZM297.566 533.371H248.532V485.654H297.566V533.371ZM298.313 534.179V581.896H347.348V534.179H298.313ZM347.348 533.371H298.313V485.654H347.348V533.371ZM348.095 534.179V581.896H397.128V534.179H348.095ZM397.128 533.371H348.095V485.654H397.128V533.371ZM397.875 534.179V581.896H446.91V534.179H397.875ZM446.91 533.371H397.875V485.654H446.91V533.371ZM447.657 534.179V581.896H496.691V534.179H447.657ZM496.691 533.371H447.657V485.654H496.691V533.371ZM497.438 534.179V581.896H546.472V534.179H497.438ZM546.472 533.371H497.438V485.654H546.472V533.371ZM547.219 534.179V581.896H596.253V534.179H547.219ZM596.253 533.371H547.219V485.654H596.253V533.371ZM597 534.179V581.896H646.035V534.179H597ZM646.035 533.371H597V485.654H646.035V533.371ZM646.781 534.179V581.896H695.815V534.179H646.781ZM695.815 533.371H646.781V485.654H695.815V533.371ZM696.562 534.179V581.896H745.596V534.179H696.562ZM745.596 533.371H696.562V485.654H745.596V533.371ZM746.343 534.179V581.896H795.38V534.179H746.343ZM795.38 533.371H746.343V485.654H795.38V533.371ZM796.127 534.179V581.896H845.156V534.179H796.127ZM845.156 533.371H796.127V485.654H845.156V533.371ZM845.903 534.179V581.896H894.94V534.179H845.903ZM894.94 533.371H845.903V485.654H894.94V533.371ZM895.687 534.179V581.896H944.723V534.179H895.687ZM944.723 533.371H895.687V485.654H944.723V533.371ZM945.47 534.179V581.896H994.5V534.179H945.47ZM994.5 533.371H945.47V485.654H994.5V533.371ZM995.246 534.179V581.896H1044.28V534.179H995.246ZM1044.28 533.371H995.246V485.654H1044.28V533.371ZM1045.03 534.179V581.896H1094.07V534.179H1045.03ZM1094.07 533.371H1045.03V485.654H1094.07V533.371ZM1094.81 534.179V581.896H1143.84V534.179H1094.81ZM1143.84 533.371H1094.81V485.654H1143.84V533.371ZM49.4077 193.696V145.979H98.4418V193.696H49.4077ZM99.1885 193.696V145.979H148.223V193.696H99.1885ZM99.1885 145.171H148.223V97.4544H99.1885V145.171ZM148.97 193.696V145.979H198.005V193.696H148.97ZM148.97 145.171H198.005V97.4544H148.97V145.171ZM198.751 193.696V145.979H247.785V193.696H198.751ZM198.751 145.171H247.785V97.4544H198.751V145.171ZM248.532 193.696V145.979H297.566V193.696H248.532ZM248.532 145.171H297.566V97.4544H248.532V145.171ZM298.313 193.696V145.979H347.348V193.696H298.313ZM298.313 145.171H347.348V97.4544H298.313V145.171ZM348.095 193.696V145.979H397.128V193.696H348.095ZM348.095 145.171H397.128V97.4544H348.095V145.171ZM397.875 193.696V145.979H446.91V193.696H397.875ZM397.875 145.171H446.91V97.4544H397.875V145.171ZM447.657 193.696V145.979H496.691V193.696H447.657ZM447.657 145.171H496.691V97.4544H447.657V145.171ZM497.438 193.696V145.979H546.472V193.696H497.438ZM497.438 145.171H546.472V97.4544H497.438V145.171ZM547.219 193.696V145.979H596.253V193.696H547.219ZM547.219 145.171H596.253V97.4544H547.219V145.171ZM597 193.696V145.979H646.035V193.696H597ZM597 145.171H646.035V97.4544H597V145.171ZM646.781 193.696V145.979H695.815V193.696H646.781ZM646.781 145.171H695.815V97.4544H646.781V145.171ZM696.562 193.696V145.979H745.596V193.696H696.562ZM696.562 145.171H745.596V97.4544H696.562V145.171ZM746.343 193.696V145.979H795.38V193.696H746.343ZM746.343 145.171H795.38V97.4544H746.343V145.171ZM796.127 193.696V145.979H845.156V193.696H796.127ZM796.127 145.171H845.156V97.4544H796.127V145.171ZM845.903 193.696V145.979H894.94V193.696H845.903ZM845.903 145.171H894.94V97.4544H845.903V145.171ZM895.687 193.696V145.979H944.723V193.696H895.687ZM895.687 145.171H944.723V97.4544H895.687V145.171ZM945.47 193.696V145.979H994.5V193.696H945.47ZM945.47 145.171H994.5V97.4544H945.47V145.171ZM995.246 193.696V145.979H1044.28V193.696H995.246ZM995.246 145.171H1044.28V97.4544H995.246V145.171ZM1045.03 193.696V145.979H1094.07V193.696H1045.03ZM1045.03 145.171H1094.07V97.4544H1045.03V145.171ZM1094.81 193.696V145.979H1143.84V193.696H1094.81ZM1094.81 145.171H1143.84V97.4544H1094.81V145.171ZM49.4077 145.171H98.4418V97.4544H49.4077V145.171ZM49.4077 922.379V970.096H98.4418V922.379H49.4077ZM98.4418 921.571H49.4077V873.854H98.4418V921.571ZM99.1885 922.379V970.096H148.223V922.379H99.1885ZM148.223 921.571H99.1885V873.854H148.223V921.571ZM148.97 922.379V970.096H198.005V922.379H148.97ZM198.005 921.571H148.97V873.854H198.005V921.571ZM198.751 922.379V970.096H247.785V922.379H198.751ZM247.785 921.571H198.751V873.854H247.785V921.571ZM248.532 922.379V970.096H297.566V922.379H248.532ZM297.566 921.571H248.532V873.854H297.566V921.571ZM298.313 922.379V970.096H347.348V922.379H298.313ZM347.348 921.571H298.313V873.854H347.348V921.571ZM348.095 922.379V970.096H397.128V922.379H348.095ZM397.128 921.571H348.095V873.854H397.128V921.571ZM397.875 922.379V970.096H446.91V922.379H397.875ZM446.91 921.571H397.875V873.854H446.91V921.571ZM447.657 922.379V970.096H496.691V922.379H447.657ZM496.691 921.571H447.657V873.854H496.691V921.571ZM497.438 922.379V970.096H546.472V922.379H497.438ZM546.472 921.571H497.438V873.854H546.472V921.571ZM547.219 922.379V970.096H596.253V922.379H547.219ZM596.253 921.571H547.219V873.854H596.253V921.571ZM597 922.379V970.096H646.035V922.379H597ZM646.035 921.571H597V873.854H646.035V921.571ZM646.781 922.379V970.096H695.815V922.379H646.781ZM695.815 921.571H646.781V873.854H695.815V921.571ZM696.562 922.379V970.096H745.596V922.379H696.562ZM745.596 921.571H696.562V873.854H745.596V921.571ZM746.343 922.379V970.096H795.38V922.379H746.343ZM795.38 921.571H746.343V873.854H795.38V921.571ZM796.127 922.379V970.096H845.156V922.379H796.127ZM845.156 921.571H796.127V873.854H845.156V921.571ZM845.903 922.379V970.096H894.94V922.379H845.903ZM894.94 921.571H845.903V873.854H894.94V921.571ZM895.687 922.379V970.096H944.723V922.379H895.687ZM944.723 921.571H895.687V873.854H944.723V921.571ZM945.47 922.379V970.096H994.5V922.379H945.47ZM994.5 921.571H945.47V873.854H994.5V921.571ZM995.246 922.379V970.096H1044.28V922.379H995.246ZM1044.28 921.571H995.246V873.854H1044.28V921.571ZM1045.03 922.379V970.096H1094.07V922.379H1045.03ZM1094.07 921.571H1045.03V873.854H1094.07V921.571ZM1094.81 922.379V970.096H1143.84V922.379H1094.81ZM1143.84 921.571H1094.81V873.854H1143.84V921.571ZM1143.84 582.704V630.421H1094.81V582.704H1143.84ZM1094.07 582.704V630.421H1045.03V582.704H1094.07ZM1094.07 631.229H1045.03V678.946H1094.07V631.229ZM1044.28 582.704V630.421H995.246V582.704H1044.28ZM1044.28 631.229H995.246V678.946H1044.28V631.229ZM994.5 582.704V630.421H945.47V582.704H994.5ZM994.5 631.229H945.47V678.946H994.5V631.229ZM944.723 582.704V630.421H895.687V582.704H944.723ZM944.723 631.229H895.687V678.946H944.723V631.229ZM894.94 582.704V630.421H845.903V582.704H894.94ZM894.94 631.229H845.903V678.946H894.94V631.229ZM845.156 582.704V630.421H796.127V582.704H845.156ZM845.156 631.229H796.127V678.946H845.156V631.229ZM795.38 582.704V630.421H746.343V582.704H795.38ZM795.38 631.229H746.343V678.946H795.38V631.229ZM745.596 582.704V630.421H696.562V582.704H745.596ZM745.596 631.229H696.562V678.946H745.596V631.229ZM695.815 582.704V630.421H646.781V582.704H695.815ZM695.815 631.229H646.781V678.946H695.815V631.229ZM646.035 582.704V630.421H597V582.704H646.035ZM646.035 631.229H597V678.946H646.035V631.229ZM596.253 582.704V630.421H547.219V582.704H596.253ZM596.253 631.229H547.219V678.946H596.253V631.229ZM546.472 582.704V630.421H497.438V582.704H546.472ZM546.472 631.229H497.438V678.946H546.472V631.229ZM496.691 582.704V630.421H447.657V582.704H496.691ZM496.691 631.229H447.657V678.946H496.691V631.229ZM446.91 582.704V630.421H397.875V582.704H446.91ZM446.91 631.229H397.875V678.946H446.91V631.229ZM397.128 582.704V630.421H348.095V582.704H397.128ZM397.128 631.229H348.095V678.946H397.128V631.229ZM347.348 582.704V630.421H298.313V582.704H347.348ZM347.348 631.229H298.313V678.946H347.348V631.229ZM297.566 582.704V630.421H248.532V582.704H297.566ZM297.566 631.229H248.532V678.946H297.566V631.229ZM247.785 582.704V630.421H198.751V582.704H247.785ZM247.785 631.229H198.751V678.946H247.785V631.229ZM198.005 582.704V630.421H148.97V582.704H198.005ZM198.005 631.229H148.97V678.946H198.005V631.229ZM148.223 582.704V630.421H99.1885V582.704H148.223ZM148.223 631.229H99.1885V678.946H148.223V631.229ZM98.4418 582.704V630.421H49.4077V582.704H98.4418ZM98.4418 631.229H49.4077V678.946H98.4418V631.229ZM1143.84 631.229H1094.81V678.946H1143.84V631.229ZM1143.84 242.221V194.504H1094.81V242.221H1143.84ZM1094.81 243.029H1143.84V290.746H1094.81V243.029ZM1094.07 242.221V194.504H1045.03V242.221H1094.07ZM1045.03 243.029H1094.07V290.746H1045.03V243.029ZM1044.28 242.221V194.504H995.246V242.221H1044.28ZM995.246 243.029H1044.28V290.746H995.246V243.029ZM994.5 242.221V194.504H945.47V242.221H994.5ZM945.47 243.029H994.5V290.746H945.47V243.029ZM944.723 242.221V194.504H895.687V242.221H944.723ZM895.687 243.029H944.723V290.746H895.687V243.029ZM894.94 242.221V194.504H845.903V242.221H894.94ZM845.903 243.029H894.94V290.746H845.903V243.029ZM845.156 242.221V194.504H796.127V242.221H845.156ZM796.127 243.029H845.156V290.746H796.127V243.029ZM795.38 242.221V194.504H746.343V242.221H795.38ZM746.343 243.029H795.38V290.746H746.343V243.029ZM745.596 242.221V194.504H696.562V242.221H745.596ZM696.562 243.029H745.596V290.746H696.562V243.029ZM695.815 242.221V194.504H646.781V242.221H695.815ZM646.781 243.029H695.815V290.746H646.781V243.029ZM646.035 242.221V194.504H597V242.221H646.035ZM597 243.029H646.035V290.746H597V243.029ZM596.253 242.221V194.504H547.219V242.221H596.253ZM547.219 243.029H596.253V290.746H547.219V243.029ZM546.472 242.221V194.504H497.438V242.221H546.472ZM497.438 243.029H546.472V290.746H497.438V243.029ZM496.691 242.221V194.504H447.657V242.221H496.691ZM447.657 243.029H496.691V290.746H447.657V243.029ZM446.91 242.221V194.504H397.875V242.221H446.91ZM397.875 243.029H446.91V290.746H397.875V243.029ZM397.128 242.221V194.504H348.095V242.221H397.128ZM348.095 243.029H397.128V290.746H348.095V243.029ZM347.348 242.221V194.504H298.313V242.221H347.348ZM298.313 243.029H347.348V290.746H298.313V243.029ZM297.566 242.221V194.504H248.532V242.221H297.566ZM248.532 243.029H297.566V290.746H248.532V243.029ZM247.785 242.221V194.504H198.751V242.221H247.785ZM198.751 243.029H247.785V290.746H198.751V243.029ZM198.005 242.221V194.504H148.97V242.221H198.005ZM148.97 243.029H198.005V290.746H148.97V243.029ZM148.223 242.221V194.504H99.1885V242.221H148.223ZM99.1885 243.029H148.223V290.746H99.1885V243.029ZM98.4418 242.221V194.504H49.4077V242.221H98.4418ZM49.4077 243.029H98.4418V290.746H49.4077V243.029ZM1143.84 388.604V436.321H1094.81V388.604H1143.84ZM1094.07 388.604V436.321H1045.03V388.604H1094.07ZM1094.07 437.129H1045.03V484.846H1094.07V437.129ZM1044.28 388.604V436.321H995.246V388.604H1044.28ZM1044.28 437.129H995.246V484.846H1044.28V437.129ZM994.5 388.604V436.321H945.47V388.604H994.5ZM994.5 437.129H945.47V484.846H994.5V437.129ZM944.723 388.604V436.321H895.687V388.604H944.723ZM944.723 437.129H895.687V484.846H944.723V437.129ZM894.94 388.604V436.321H845.903V388.604H894.94ZM894.94 437.129H845.903V484.846H894.94V437.129ZM845.156 388.604V436.321H796.127V388.604H845.156ZM845.156 437.129H796.127V484.846H845.156V437.129ZM795.38 388.604V436.321H746.343V388.604H795.38ZM795.38 437.129H746.343V484.846H795.38V437.129ZM745.596 388.604V436.321H696.562V388.604H745.596ZM745.596 437.129H696.562V484.846H745.596V437.129ZM695.815 388.604V436.321H646.781V388.604H695.815ZM695.815 437.129H646.781V484.846H695.815V437.129ZM646.035 388.604V436.321H597V388.604H646.035ZM646.035 437.129H597V484.846H646.035V437.129ZM596.253 388.604V436.321H547.219V388.604H596.253ZM596.253 437.129H547.219V484.846H596.253V437.129ZM546.472 388.604V436.321H497.438V388.604H546.472ZM546.472 437.129H497.438V484.846H546.472V437.129ZM496.691 388.604V436.321H447.657V388.604H496.691ZM496.691 437.129H447.657V484.846H496.691V437.129ZM446.91 388.604V436.321H397.875V388.604H446.91ZM446.91 437.129H397.875V484.846H446.91V437.129ZM397.128 388.604V436.321H348.095V388.604H397.128ZM397.128 437.129H348.095V484.846H397.128V437.129ZM347.348 388.604V436.321H298.313V388.604H347.348ZM347.348 437.129H298.313V484.846H347.348V437.129ZM297.566 388.604V436.321H248.532V388.604H297.566ZM297.566 437.129H248.532V484.846H297.566V437.129ZM247.785 388.604V436.321H198.751V388.604H247.785ZM247.785 437.129H198.751V484.846H247.785V437.129ZM198.005 388.604V436.321H148.97V388.604H198.005ZM198.005 437.129H148.97V484.846H198.005V437.129ZM148.223 388.604V436.321H99.1885V388.604H148.223ZM148.223 437.129H99.1885V484.846H148.223V437.129ZM98.4418 388.604V436.321H49.4077V388.604H98.4418ZM98.4418 437.129H49.4077V484.846H98.4418V437.129ZM1143.84 437.129H1094.81V484.846H1143.84V437.129ZM1143.84 48.9294H1094.81V96.6456H1143.84V48.9294ZM1094.07 48.9294H1045.03V96.6456H1094.07V48.9294ZM1044.28 48.9294H995.246V96.6456H1044.28V48.9294ZM994.5 48.9294H945.47V96.6456H994.5V48.9294ZM944.723 48.9294H895.687V96.6456H944.723V48.9294ZM894.94 48.9294H845.903V96.6456H894.94V48.9294ZM845.156 48.9294H796.127V96.6456H845.156V48.9294ZM795.38 48.9294H746.343V96.6456H795.38V48.9294ZM745.596 48.9294H696.562V96.6456H745.596V48.9294ZM695.815 48.9294H646.781V96.6456H695.815V48.9294ZM646.035 48.9294H597V96.6456H646.035V48.9294ZM596.253 48.9294H547.219V96.6456H596.253V48.9294ZM546.472 48.9294H497.438V96.6456H546.472V48.9294ZM496.691 48.9294H447.657V96.6456H496.691V48.9294ZM446.91 48.9294H397.875V96.6456H446.91V48.9294ZM397.128 48.9294H348.095V96.6456H397.128V48.9294ZM347.348 48.9294H298.313V96.6456H347.348V48.9294ZM297.566 48.9294H248.532V96.6456H297.566V48.9294ZM247.785 48.9294L198.751 48.9293V96.6456H247.785V48.9294ZM198.005 48.9293H148.97V96.6456H198.005V48.9293ZM148.223 48.9293H99.1885V96.6456H148.223V48.9293ZM98.4418 48.9293H49.4077V96.6456H98.4418V48.9293Z" fill="#C7C5CF"/>
</g>
</g>
<defs>
<radialGradient id="paint0_radial_39_403" cx="0" cy="0" r="1" gradientUnits="userSpaceOnUse" gradientTransform="translate(596.627 -6.26936e-05) rotate(90) scale(525.912 572.058)">
<stop stop-color="white"/>
<stop offset="0.991144" stop-color="white" stop-opacity="0"/>
</radialGradient>
<clipPath id="clip0_39_403">
<rect width="1194" height="647" fill="white"/>
</clipPath>
</defs>
</svg>
